<?xml version="1.0" standalone="no"?><!DOCTYPE svg PUBLIC "-//W3C//DTD SVG 1.1//EN" "http://www.w3.org/Graphics/SVG/1.1/DTD/svg11.dtd"><svg t="1535606519530" class="icon" style="" viewBox="0 0 1024 1024" version="1.1" xmlns="http://www.w3.org/2000/svg" p-id="855" xmlns:xlink="http://www.w3.org/1999/xlink" width="200" height="200"><defs><style type="text/css"></style></defs><path d="M477.75744 477.75744H261.38624c-20.04992 0-36.10624 16.15872-36.10624 36.06528 0 20.04992 16.15872 36.06528 36.10624 36.06528h216.3712v216.3712c0 20.04992 16.15872 36.10624 36.06528 36.10624 20.04992 0 36.06528-16.15872 36.06528-36.10624V549.888h216.3712c20.04992 0 36.10624-16.13824 36.10624-36.06528 0-20.04992-16.15872-36.06528-36.10624-36.06528H549.888V261.38624c0-20.04992-16.13824-36.10624-36.06528-36.10624-20.04992 0-36.06528 16.15872-36.06528 36.10624v216.3712z" p-id="856"></path></svg>